<svg id="Layer_1" viewBox="0 0 24 24" xmlns="http://www.w3.org/2000/svg" data-name="Layer 1"><path d="m17.449 3.265c-.102-.324-.362-.575-.69-.664-.09-.024-2.233-.601-4.759-.601s-4.668.577-4.758.601c-.329.089-.59.341-.692.667-.026.083-.629 2.047-.629 4.649 0 .146.002.291.006.433.348-.019.707-.031 1.074-.031 1.986 0 4.053.339 5.044.527 1.059-.204 3.038-.527 4.956-.527.367 0 .726.011 1.074.031.004-.142.006-.286.006-.432 0-2.625-.604-4.571-.63-4.652zm-4.449 3.235h-2c-.552 0-1-.448-1-1s.448-1 1-1h2c.552 0 1 .448 1 1s-.448 1-1 1z"/><g><path d="m7 10.319c-2.482 0-4.598.567-4.687.592-.33.089-.591.341-.692.667-.025.081-.621 2.018-.621 4.582 0 2.586.596 4.504.622 4.584.103.325.362.575.69.664.089.024 2.2.592 4.688.592 1.457 0 2.981-.189 4-.346v-10.962c-1.021-.17-2.542-.372-4-.372zm.5 5.181h-2.5c-.552 0-1-.448-1-1s.448-1 1-1h2.5c.552 0 1 .448 1 1s-.448 1-1 1z"/><path d="m22.378 11.575c-.103-.325-.362-.575-.69-.664-.089-.024-2.2-.592-4.688-.592-1.456 0-2.977.209-4 .386v10.962c1.017.151 2.54.333 4 .333 2.482 0 4.598-.567 4.687-.592.33-.089.591-.341.692-.667.025-.081.621-2.018.621-4.582 0-2.586-.596-4.504-.622-4.584zm-3.378 3.925h-2.5c-.552 0-1-.448-1-1s.448-1 1-1h2.5c.552 0 1 .448 1 1s-.448 1-1 1z"/></g></svg>